<svg width="47" height="41" viewBox="0 0 47 41" fill="none" xmlns="http://www.w3.org/2000/svg">
<path d="M41.5886 8.52554H36.519V3.45592C36.519 2.55955 36.1629 1.6999 35.5291 1.06608C34.8953 0.432251 34.0356 0.0761719 33.1393 0.0761719H12.8608C11.9644 0.0761719 11.1048 0.432251 10.4709 1.06608C9.83712 1.6999 9.48104 2.55955 9.48104 3.45592V8.52554H4.41142C3.06687 8.52554 1.77739 9.05966 0.826654 10.0104C-0.124084 10.9611 -0.658203 12.2506 -0.658203 13.5952V37.2534C-0.658203 38.1497 -0.302124 39.0094 0.331702 39.6432C0.965527 40.2771 1.82518 40.6331 2.72154 40.6331H43.2785C44.1749 40.6331 45.0345 40.2771 45.6683 39.6432C46.3022 39.0094 46.6582 38.1497 46.6582 37.2534V13.5952C46.6582 12.2506 46.1241 10.9611 45.1734 10.0104C44.2227 9.05966 42.9332 8.52554 41.5886 8.52554ZM12.8608 3.45592H33.1393V8.52554H12.8608V3.45592ZM43.2785 37.2534H2.72154V22.0445H16.2405V30.4939H29.7595V22.0445H43.2785V37.2534ZM19.6203 22.0445H26.3798V27.1141H19.6203V22.0445ZM2.72154 18.6648V13.5952C2.72154 13.147 2.89958 12.7172 3.2165 12.4002C3.53341 12.0833 3.96323 11.9053 4.41142 11.9053H41.5886C42.0368 11.9053 42.4666 12.0833 42.7836 12.4002C43.1005 12.7172 43.2785 13.147 43.2785 13.5952V18.6648H2.72154Z" fill="#0D5C63"/>
</svg>
